<svg xmlns="http://www.w3.org/2000/svg" viewBox="0 0 64 64">
  <defs>
    <linearGradient id="g" x1="0" y1="1" x2="1" y2="0">
      <stop offset="0%" stop-color="#1E4FD8" />
      <stop offset="55%" stop-color="#4A46DE" />
      <stop offset="100%" stop-color="#8A3CE0" />
    </linearGradient>
  </defs>
  <rect width="64" height="64" rx="14" fill="#0A0D12" />
  <g transform="translate(2 15) scale(0.94)">
    <path
      d="M2 25.5c0-2 1.3-3.4 3.3-3.9l6.4-1.6 6.6-6.4c2.3-2.2 5.3-3.4 8.5-3.4h11.4c3.5 0 6.9 1.3 9.4 3.8l4.6 4.5 6.1 1.4c2.7.6 4.7 2.6 4.7 5v2.3c0 .9-.7 1.6-1.6 1.6H3.6c-.9 0-1.6-.7-1.6-1.6v-1.7Z"
      fill="url(#g)"
    />
    <path
      d="M15.6 19.4 21 14.3c1.5-1.4 3.5-2.2 5.6-2.2h10.6c2.4 0 4.7.9 6.4 2.6l4.6 4.7H15.6Z"
      fill="#0A0D12"
      opacity="0.5"
    />
    <circle cx="17.5" cy="26.5" r="4.6" fill="#0A0D12" />
    <circle cx="17.5" cy="26.5" r="1.9" fill="#C9CEDA" />
    <circle cx="46.5" cy="26.5" r="4.6" fill="#0A0D12" />
    <circle cx="46.5" cy="26.5" r="1.9" fill="#C9CEDA" />
  </g>
</svg>
